<svg width="250" height="170" viewBox="0 0 335 170" fill="none" xmlns="http://www.w3.org/2000/svg">
<path d="M-31.2021 145.096C-27.7612 144.809 240.501 144.976 374.202 145.096M81.7086 125.74V144.938L71.7795 144.938V85.9521L238.647 85.9578V144.995L229.031 144.989V125.74M81.7086 125.74C83.4292 125.166 180.64 125.501 229.031 125.74M81.7086 125.74V109.789M229.031 125.74V109.789M81.7086 109.789V93.8379H229.031V109.789M81.7086 109.789H229.031M87.8315 93.764V125.424M94.0012 93.764V125.424M100.171 93.764V125.424M106.341 93.764V125.424M112.511 93.764V125.424M118.68 93.764V125.424M124.85 93.764V125.424M131.02 93.764V125.424M137.19 93.764V125.424M143.359 93.764V125.424M149.529 93.764V125.424M155.699 93.764V125.424M161.869 93.764V125.424M168.038 93.764V125.424M174.208 93.764V125.424M180.378 93.764V125.424M186.548 93.764V125.424M192.717 93.764V125.424M198.887 93.764V125.424M205.057 93.764V125.424M211.227 93.764V125.424M217.396 93.764V125.424M223.566 93.764V125.424" stroke="#F8F8F8" stroke-width="1.07863" stroke-linecap="round" stroke-linejoin="round"/>
<path d="M218.243 122.088C218.243 122.256 218.341 122.409 218.494 122.479C218.646 122.55 218.826 122.525 218.954 122.417C218.97 122.403 220.597 121.032 222.931 120.348C224.235 119.966 225.485 119.871 226.676 120.055C225.885 120.196 225.113 120.511 224.426 121.023C222.059 122.784 221.565 126.143 223.326 128.51C223.408 128.62 223.537 128.683 223.672 128.683C223.701 128.683 223.731 128.68 223.76 128.674C223.924 128.639 224.054 128.513 224.092 128.349C224.096 128.333 224.473 126.746 225.589 125.278C226.984 123.443 228.866 122.605 231.184 122.779V143.647H230.079C229.841 143.647 229.648 143.839 229.648 144.078C229.648 144.316 229.841 144.509 230.079 144.509H233.15C233.388 144.509 233.581 144.316 233.581 144.078C233.581 143.839 233.388 143.647 233.15 143.647H232.045V122.78C234.371 122.601 236.261 123.437 237.659 125.278C238.775 126.746 239.153 128.333 239.156 128.349C239.194 128.513 239.324 128.639 239.488 128.674C239.518 128.68 239.547 128.683 239.577 128.683C239.711 128.683 239.84 128.62 239.922 128.51C241.683 126.143 241.19 122.784 238.822 121.023C238.12 120.5 237.329 120.181 236.519 120.046C237.677 119.883 238.889 119.98 240.152 120.346C242.506 121.029 244.164 122.42 244.18 122.434C244.308 122.543 244.487 122.568 244.64 122.497C244.792 122.426 244.89 122.274 244.89 122.106C244.89 118.304 241.796 115.211 237.995 115.211C236.622 115.211 235.345 115.619 234.27 116.313C235.297 115.172 236.653 114.417 238.331 114.064C240.483 113.613 242.384 114.016 242.403 114.02C242.566 114.055 242.737 113.993 242.838 113.859C242.94 113.725 242.954 113.545 242.876 113.396C241.256 110.353 237.462 109.193 234.417 110.813C233.04 111.545 232.054 112.725 231.531 114.077C231.008 112.725 230.022 111.545 228.644 110.813C225.6 109.193 221.806 110.353 220.186 113.396C220.107 113.545 220.122 113.726 220.223 113.859C220.325 113.993 220.496 114.057 220.659 114.02C220.677 114.015 222.552 113.614 224.702 114.058C226.396 114.408 227.763 115.167 228.797 116.319C227.729 115.633 226.463 115.229 225.103 115.229C221.321 115.229 218.243 118.306 218.243 122.088ZM219.171 121.195C219.604 118.31 222.099 116.091 225.103 116.091C228.065 116.091 230.533 118.251 231.015 121.078C226.157 117.291 221.073 119.935 219.171 121.195ZM223.556 127.225C222.667 125.333 223.2 123.009 224.94 121.715C225.743 121.117 226.682 120.829 227.613 120.829C228.661 120.829 229.699 121.194 230.522 121.893C226.136 121.933 224.227 125.489 223.556 127.225ZM239.693 127.225C239.022 125.489 237.113 121.933 232.725 121.893C234.282 120.572 236.602 120.445 238.308 121.715C240.049 123.009 240.582 125.333 239.693 127.225ZM243.962 121.213C242.787 120.432 240.393 119.121 237.585 119.121C235.835 119.121 233.924 119.631 232.046 121.096C232.528 118.248 235.012 116.072 237.995 116.072C241.018 116.073 243.529 118.308 243.962 121.213ZM234.822 111.573C235.627 111.145 236.492 110.942 237.345 110.942C238.991 110.942 240.593 111.697 241.63 113.047C239.519 112.858 234.475 112.979 232.203 117.927C231.452 115.505 232.503 112.807 234.822 111.573ZM222.533 112.999C222.115 112.999 221.742 113.019 221.432 113.047C223.006 110.997 225.883 110.319 228.239 111.573C230.559 112.807 231.609 115.505 230.858 117.927C228.919 113.705 224.964 112.999 222.533 112.999Z" fill="#E4803A"/>
<path d="M234.822 111.573C235.627 111.145 236.492 110.942 237.345 110.942C238.991 110.942 240.593 111.697 241.63 113.047C239.519 112.858 234.475 112.979 232.203 117.927C231.452 115.505 232.503 112.807 234.822 111.573Z" fill="#E4803A"/>
<path d="M222.533 112.999C222.115 112.999 221.742 113.019 221.432 113.047C223.006 110.997 225.883 110.319 228.239 111.573C230.559 112.807 231.609 115.505 230.858 117.927C228.919 113.705 224.964 112.999 222.533 112.999Z" fill="#E4803A"/>
<path d="M219.171 121.195C219.604 118.31 222.099 116.091 225.103 116.091C228.065 116.091 230.533 118.251 231.015 121.078C226.157 117.291 221.073 119.935 219.171 121.195Z" fill="#E4803A"/>
<path d="M223.556 127.225C222.667 125.333 223.2 123.009 224.94 121.715C225.743 121.117 226.682 120.829 227.613 120.829C228.661 120.829 229.699 121.194 230.522 121.893C226.136 121.933 224.227 125.489 223.556 127.225Z" fill="#E4803A"/>
<path d="M243.962 121.213C242.787 120.432 240.393 119.121 237.585 119.121C235.835 119.121 233.924 119.631 232.046 121.096C232.528 118.248 235.012 116.072 237.995 116.072C241.018 116.073 243.529 118.308 243.962 121.213Z" fill="#E4803A"/>
<path d="M239.693 127.225C239.022 125.489 237.113 121.933 232.725 121.893C234.282 120.572 236.602 120.445 238.308 121.715C240.049 123.009 240.582 125.333 239.693 127.225Z" fill="#E4803A"/>
<path d="M95.7877 128.077V144.593C95.7877 144.895 95.9891 145.097 96.2912 145.097C96.5933 145.097 96.7947 144.895 96.7947 144.593V128.077C102.686 127.825 107.369 122.941 107.369 117C107.369 110.907 102.384 105.922 96.2912 105.922C90.1985 105.922 85.2135 110.907 85.2135 117C85.2135 119.517 86.0695 121.934 87.6305 123.898C84.8107 124.452 82.6455 126.919 82.6455 129.89C82.6455 133.113 85.1128 135.731 88.2347 135.983V144.543C88.2347 144.845 88.4361 145.046 88.7382 145.046C89.0403 145.046 89.2418 144.845 89.2418 144.543V135.983C92.3637 135.731 94.831 133.113 94.831 129.89C94.831 129.185 94.7302 128.53 94.4785 127.876C94.982 128.027 95.3848 128.077 95.7877 128.077ZM96.2912 106.979C101.83 106.979 106.362 111.511 106.362 117.05C106.362 122.438 102.132 126.818 96.7947 127.07V123.697L101.528 118.963C101.729 118.762 101.729 118.46 101.528 118.258C101.326 118.057 101.024 118.057 100.823 118.258L96.7947 122.287V115.136C96.7947 114.834 96.5933 114.633 96.2912 114.633C95.9891 114.633 95.7877 114.834 95.7877 115.136V122.236L91.7594 118.208C91.558 118.007 91.2559 118.007 91.0545 118.208C90.8531 118.409 90.8531 118.712 91.0545 118.913L95.7877 123.646V127.02C95.2338 126.969 94.6295 126.919 94.0253 126.768C92.9679 125.006 91.0545 123.848 88.8893 123.797C87.1773 121.985 86.2206 119.568 86.2206 117.05C86.2206 111.511 90.7524 106.979 96.2912 106.979ZM89.2921 135.026V133.566L91.7091 131.149C91.9105 130.947 91.9105 130.645 91.7091 130.444C91.5076 130.242 91.2055 130.242 91.0041 130.444L89.2921 132.156V128.933C89.2921 128.631 89.0907 128.43 88.7886 128.43C88.4865 128.43 88.2851 128.631 88.2851 128.933V132.156L86.573 130.444C86.3716 130.242 86.0695 130.242 85.8681 130.444C85.6667 130.645 85.6667 130.947 85.8681 131.149L88.3354 133.616V135.076C85.7674 134.825 83.7533 132.659 83.7533 129.991C83.7533 127.221 85.9688 124.955 88.7382 124.905H88.8389C91.6587 124.905 93.9246 127.221 93.9246 129.991C93.8742 132.609 91.8601 134.774 89.2921 135.026Z" fill="#E4803A"/>
<path d="M96.2912 106.979C101.83 106.979 106.362 111.511 106.362 117.05C106.362 122.438 102.132 126.818 96.7947 127.07V123.697L101.528 118.963C101.729 118.762 101.729 118.46 101.528 118.258C101.326 118.057 101.024 118.057 100.823 118.258L96.7947 122.287V115.136C96.7947 114.834 96.5933 114.633 96.2912 114.633C95.9891 114.633 95.7877 114.834 95.7877 115.136V122.236L91.7594 118.208C91.558 118.007 91.2559 118.007 91.0545 118.208C90.8531 118.409 90.8531 118.712 91.0545 118.913L95.7877 123.646V127.02C95.2338 126.969 94.6295 126.919 94.0253 126.768C92.9679 125.006 91.0545 123.848 88.8893 123.797C87.1773 121.985 86.2206 119.568 86.2206 117.05C86.2206 111.511 90.7524 106.979 96.2912 106.979Z" fill="#E4803A"/>
<path d="M89.2921 135.026V133.566L91.7091 131.149C91.9105 130.947 91.9105 130.645 91.7091 130.444C91.5076 130.242 91.2055 130.242 91.0041 130.444L89.2921 132.156V128.933C89.2921 128.631 89.0907 128.43 88.7886 128.43C88.4865 128.43 88.2851 128.631 88.2851 128.933V132.156L86.573 130.444C86.3716 130.242 86.0695 130.242 85.8681 130.444C85.6667 130.645 85.6667 130.947 85.8681 131.149L88.3354 133.616V135.076C85.7674 134.825 83.7533 132.659 83.7533 129.991C83.7533 127.221 85.9688 124.955 88.7382 124.905H88.8389C91.6587 124.905 93.9246 127.221 93.9246 129.991C93.8742 132.609 91.8601 134.774 89.2921 135.026Z" fill="#E4803A"/>
<path d="M74.589 131.753V144.593C74.589 144.895 74.7904 145.096 75.0925 145.096C75.3946 145.096 75.596 144.895 75.596 144.593V131.753C80.1782 131.501 83.8539 127.674 83.8539 122.991C83.8539 118.158 79.9264 114.23 75.0925 114.23C70.2586 114.23 66.3311 118.208 66.3311 123.042C66.3311 127.674 69.9565 131.501 74.589 131.753ZM75.0925 115.287C79.3725 115.287 82.8469 118.762 82.8469 123.042C82.8469 127.12 79.6243 130.494 75.596 130.746V128.278L79.2718 124.603C79.4732 124.401 79.4732 124.099 79.2718 123.898C79.0704 123.696 78.7683 123.696 78.5669 123.898L75.596 126.869V121.582C75.596 121.279 75.3946 121.078 75.0925 121.078C74.7904 121.078 74.589 121.279 74.589 121.582V126.869L71.6181 123.898C71.4167 123.696 71.1146 123.696 70.9132 123.898C70.7118 124.099 70.7118 124.401 70.9132 124.603L74.589 128.278V130.746C70.5607 130.494 67.3381 127.12 67.3381 122.991C67.3381 118.762 70.8125 115.287 75.0925 115.287Z" fill="#E4803A"/>
<path d="M75.0925 115.287C79.3725 115.287 82.8469 118.762 82.8469 123.042C82.8469 127.12 79.6243 130.494 75.596 130.746V128.278L79.2718 124.603C79.4732 124.401 79.4732 124.099 79.2718 123.898C79.0704 123.696 78.7683 123.696 78.5669 123.898L75.596 126.869V121.582C75.596 121.279 75.3946 121.078 75.0925 121.078C74.7904 121.078 74.589 121.279 74.589 121.582V126.869L71.6181 123.898C71.4167 123.696 71.1146 123.696 70.9132 123.898C70.7118 124.099 70.7118 124.401 70.9132 124.603L74.589 128.278V130.746C70.5607 130.494 67.3381 127.12 67.3381 122.991C67.3381 118.762 70.8125 115.287 75.0925 115.287Z" fill="#E4803A"/>
<path d="M218.243 122.088C218.243 122.256 218.341 122.409 218.494 122.479C218.646 122.55 218.826 122.525 218.954 122.417C218.97 122.403 220.597 121.032 222.931 120.348C224.235 119.966 225.485 119.871 226.676 120.055C225.885 120.196 225.113 120.511 224.426 121.023C222.059 122.784 221.565 126.143 223.326 128.51C223.408 128.62 223.537 128.683 223.672 128.683C223.701 128.683 223.731 128.68 223.76 128.674C223.924 128.639 224.054 128.513 224.092 128.349C224.096 128.333 224.473 126.746 225.589 125.278C226.984 123.443 228.866 122.605 231.184 122.779V143.647H230.079C229.841 143.647 229.648 143.839 229.648 144.078C229.648 144.316 229.841 144.509 230.079 144.509H233.15C233.388 144.509 233.581 144.316 233.581 144.078C233.581 143.839 233.388 143.647 233.15 143.647H232.045V122.78C234.371 122.601 236.261 123.437 237.659 125.278C238.775 126.746 239.153 128.333 239.156 128.349C239.194 128.513 239.324 128.639 239.488 128.674C239.518 128.68 239.547 128.683 239.577 128.683C239.711 128.683 239.84 128.62 239.922 128.51C241.683 126.143 241.19 122.784 238.822 121.023C238.12 120.5 237.329 120.181 236.519 120.046C237.677 119.883 238.889 119.98 240.152 120.346C242.506 121.029 244.164 122.42 244.18 122.434C244.308 122.543 244.487 122.568 244.64 122.497C244.792 122.426 244.89 122.274 244.89 122.106C244.89 118.304 241.796 115.211 237.995 115.211C236.622 115.211 235.345 115.619 234.27 116.313C235.297 115.172 236.653 114.417 238.331 114.064C240.483 113.613 242.384 114.016 242.403 114.02C242.566 114.055 242.737 113.993 242.838 113.859C242.94 113.725 242.954 113.545 242.876 113.396C241.256 110.353 237.462 109.193 234.417 110.813C233.04 111.545 232.054 112.725 231.531 114.077C231.008 112.725 230.022 111.545 228.644 110.813C225.6 109.193 221.806 110.353 220.186 113.396C220.107 113.545 220.122 113.726 220.223 113.859C220.325 113.993 220.496 114.057 220.659 114.02C220.677 114.015 222.552 113.614 224.702 114.058C226.396 114.408 227.763 115.167 228.797 116.319C227.729 115.633 226.463 115.229 225.103 115.229C221.321 115.229 218.243 118.306 218.243 122.088ZM219.171 121.195C219.604 118.31 222.099 116.091 225.103 116.091C228.065 116.091 230.533 118.251 231.015 121.078C226.157 117.291 221.073 119.935 219.171 121.195ZM223.556 127.225C222.667 125.333 223.2 123.009 224.94 121.715C225.743 121.117 226.682 120.829 227.613 120.829C228.661 120.829 229.699 121.194 230.522 121.893C226.136 121.933 224.227 125.489 223.556 127.225ZM239.693 127.225C239.022 125.489 237.113 121.933 232.725 121.893C234.282 120.572 236.602 120.445 238.308 121.715C240.049 123.009 240.582 125.333 239.693 127.225ZM243.962 121.213C242.787 120.432 240.393 119.121 237.585 119.121C235.835 119.121 233.924 119.631 232.046 121.096C232.528 118.248 235.012 116.072 237.995 116.072C241.018 116.073 243.529 118.308 243.962 121.213ZM234.822 111.573C235.627 111.145 236.492 110.942 237.345 110.942C238.991 110.942 240.593 111.697 241.63 113.047C239.519 112.858 234.475 112.979 232.203 117.927C231.452 115.505 232.503 112.807 234.822 111.573ZM222.533 112.999C222.115 112.999 221.742 113.019 221.432 113.047C223.006 110.997 225.883 110.319 228.239 111.573C230.559 112.807 231.609 115.505 230.858 117.927C228.919 113.705 224.964 112.999 222.533 112.999Z" fill="#F8F8F8"/>
<path d="M27.1959 144.508C27.4707 144.508 27.6539 144.325 27.6539 144.05V142.676C30.4477 142.402 32.646 140.02 32.646 137.135C32.646 134.066 30.1729 131.593 27.1043 131.593C24.0357 131.593 21.5625 134.066 21.5625 137.135C21.5625 140.066 23.8525 142.493 26.7837 142.676V144.05C26.7379 144.279 26.9669 144.508 27.1959 144.508ZM22.4327 137.135C22.4327 134.57 24.5395 132.509 27.0585 132.509C29.5775 132.509 31.73 134.57 31.73 137.135C31.73 139.516 29.9439 141.486 27.6539 141.76V140.524L29.8981 138.28C30.0813 138.096 30.0813 137.822 29.8981 137.638C29.7149 137.455 29.4401 137.455 29.2569 137.638L27.6539 139.241V136.264C27.6539 135.99 27.4707 135.806 27.1959 135.806C26.9211 135.806 26.7379 135.99 26.7379 136.264V139.241L25.1349 137.638C24.9517 137.455 24.6769 137.455 24.4937 137.638C24.3105 137.822 24.3105 138.096 24.4937 138.28L26.7379 140.524V141.806C24.3563 141.577 22.4327 139.562 22.4327 137.135Z" fill="#F8F8F8"/>
<path d="M49.8053 145.096C50.0995 145.096 50.2956 144.9 50.2956 144.605V137.692C54.8553 137.251 58.3855 130.436 58.3855 121.807C58.3855 112.883 54.6102 105.921 49.8053 105.921C47.0106 105.921 44.461 108.372 42.8431 112.491C41.176 111.167 39.1168 110.383 36.8124 110.383C31.4681 110.383 27.1045 114.746 27.1045 120.091C27.1045 125.337 31.272 129.602 36.4692 129.749V144.556C36.4692 144.851 36.6653 145.047 36.9595 145.047C37.2537 145.047 37.4498 144.851 37.4498 144.556V129.749C39.0678 129.651 40.5877 129.112 41.9115 128.278C43.2353 133.721 46.03 137.3 49.2169 137.643V144.556C49.315 144.851 49.5111 145.096 49.8053 145.096ZM37.4988 126.023L41.6663 121.856C41.8625 121.659 41.8625 121.365 41.6663 121.169C41.4702 120.973 41.176 120.973 40.9799 121.169L37.4988 124.65V118.423C37.4988 118.129 37.3027 117.933 37.0085 117.933C36.7143 117.933 36.5182 118.129 36.5182 118.423V124.65L33.0371 121.169C32.841 120.973 32.5468 120.973 32.3507 121.169C32.1546 121.365 32.1546 121.659 32.3507 121.856L36.5182 126.023V128.818C31.8604 128.671 28.1341 124.797 28.1341 120.14C28.1341 115.335 32.0565 111.412 36.8614 111.412C41.6663 111.412 45.5887 115.335 45.5887 120.14C45.5887 124.699 42.0095 128.475 37.5478 128.818V126.023H37.4988ZM42.8431 127.69C45.0984 125.925 46.5203 123.179 46.5203 120.091C46.5203 117.394 45.3926 114.942 43.6275 113.177C45.0494 109.255 47.3538 106.901 49.8053 106.901C53.9728 106.901 57.4049 113.619 57.4049 121.807C57.4049 129.7 54.267 136.172 50.2956 136.712V124.993C50.2956 124.699 50.0995 124.503 49.8053 124.503C49.5111 124.503 49.315 124.699 49.315 124.993V136.712C46.4713 136.368 43.9707 132.887 42.8431 127.69Z" fill="#F8F8F8"/>
<path d="M253.149 131.753V144.593C253.149 144.895 253.35 145.096 253.652 145.096C253.954 145.096 254.156 144.895 254.156 144.593V131.753C258.738 131.501 262.413 127.674 262.413 122.991C262.413 118.158 258.486 114.23 253.652 114.23C248.818 114.23 244.891 118.208 244.891 123.042C244.891 127.674 248.516 131.501 253.149 131.753ZM253.652 115.287C257.932 115.287 261.406 118.762 261.406 123.042C261.406 127.12 258.184 130.494 254.156 130.746V128.278L257.831 124.603C258.033 124.401 258.033 124.099 257.831 123.898C257.63 123.696 257.328 123.696 257.126 123.898L254.156 126.869V121.582C254.156 121.279 253.954 121.078 253.652 121.078C253.35 121.078 253.149 121.279 253.149 121.582V126.869L250.178 123.898C249.976 123.696 249.674 123.696 249.473 123.898C249.271 124.099 249.271 124.401 249.473 124.603L253.149 128.278V130.746C249.12 130.494 245.898 127.12 245.898 122.991C245.898 118.762 249.372 115.287 253.652 115.287Z" fill="#F8F8F8"/>
<path d="M274.347 128.077V144.593C274.347 144.895 274.549 145.097 274.851 145.097C275.153 145.097 275.354 144.895 275.354 144.593V128.077C281.246 127.825 285.928 122.941 285.928 117C285.928 110.907 280.943 105.922 274.851 105.922C268.758 105.922 263.773 110.907 263.773 117C263.773 119.517 264.629 121.934 266.19 123.898C263.37 124.452 261.205 126.919 261.205 129.89C261.205 133.113 263.672 135.731 266.794 135.983V144.543C266.794 144.845 266.996 145.046 267.298 145.046C267.6 145.046 267.801 144.845 267.801 144.543V135.983C270.923 135.731 273.391 133.113 273.391 129.89C273.391 129.185 273.29 128.53 273.038 127.876C273.542 128.027 273.944 128.077 274.347 128.077ZM274.851 106.979C280.39 106.979 284.921 111.511 284.921 117.05C284.921 122.438 280.692 126.818 275.354 127.07V123.697L280.087 118.963C280.289 118.762 280.289 118.46 280.087 118.258C279.886 118.057 279.584 118.057 279.383 118.258L275.354 122.287V115.136C275.354 114.834 275.153 114.633 274.851 114.633C274.549 114.633 274.347 114.834 274.347 115.136V122.236L270.319 118.208C270.118 118.007 269.815 118.007 269.614 118.208C269.413 118.409 269.413 118.712 269.614 118.913L274.347 123.646V127.02C273.793 126.969 273.189 126.919 272.585 126.768C271.527 125.006 269.614 123.848 267.449 123.797C265.737 121.985 264.78 119.568 264.78 117.05C264.78 111.511 269.312 106.979 274.851 106.979ZM267.852 135.026V133.566L270.269 131.149C270.47 130.947 270.47 130.645 270.269 130.444C270.067 130.242 269.765 130.242 269.564 130.444L267.852 132.156V128.933C267.852 128.631 267.65 128.43 267.348 128.43C267.046 128.43 266.845 128.631 266.845 128.933V132.156L265.133 130.444C264.931 130.242 264.629 130.242 264.428 130.444C264.226 130.645 264.226 130.947 264.428 131.149L266.895 133.616V135.076C264.327 134.825 262.313 132.659 262.313 129.991C262.313 127.221 264.528 124.955 267.298 124.905H267.399C270.218 124.905 272.484 127.221 272.484 129.991C272.434 132.609 270.42 134.774 267.852 135.026Z" fill="#F8F8F8"/>
<path d="M74.589 131.753V144.593C74.589 144.895 74.7904 145.096 75.0925 145.096C75.3946 145.096 75.596 144.895 75.596 144.593V131.753C80.1782 131.501 83.8539 127.674 83.8539 122.991C83.8539 118.158 79.9264 114.23 75.0925 114.23C70.2586 114.23 66.3311 118.208 66.3311 123.042C66.3311 127.674 69.9565 131.501 74.589 131.753ZM75.0925 115.287C79.3725 115.287 82.8469 118.762 82.8469 123.042C82.8469 127.12 79.6243 130.494 75.596 130.746V128.278L79.2718 124.603C79.4732 124.401 79.4732 124.099 79.2718 123.898C79.0704 123.696 78.7683 123.696 78.5669 123.898L75.596 126.869V121.582C75.596 121.279 75.3946 121.078 75.0925 121.078C74.7904 121.078 74.589 121.279 74.589 121.582V126.869L71.6181 123.898C71.4167 123.696 71.1146 123.696 70.9132 123.898C70.7118 124.099 70.7118 124.401 70.9132 124.603L74.589 128.278V130.746C70.5607 130.494 67.3381 127.12 67.3381 122.991C67.3381 118.762 70.8125 115.287 75.0925 115.287Z" fill="#F8F8F8"/>
<path d="M95.7877 128.077V144.593C95.7877 144.895 95.9891 145.097 96.2912 145.097C96.5933 145.097 96.7947 144.895 96.7947 144.593V128.077C102.686 127.825 107.369 122.941 107.369 117C107.369 110.907 102.384 105.922 96.2912 105.922C90.1985 105.922 85.2135 110.907 85.2135 117C85.2135 119.517 86.0695 121.934 87.6305 123.898C84.8107 124.452 82.6455 126.919 82.6455 129.89C82.6455 133.113 85.1128 135.731 88.2347 135.983V144.543C88.2347 144.845 88.4361 145.046 88.7382 145.046C89.0403 145.046 89.2418 144.845 89.2418 144.543V135.983C92.3637 135.731 94.8309 133.113 94.8309 129.89C94.8309 129.185 94.7302 128.53 94.4785 127.876C94.982 128.027 95.3848 128.077 95.7877 128.077ZM96.2912 106.979C101.83 106.979 106.362 111.511 106.362 117.05C106.362 122.438 102.132 126.818 96.7947 127.07V123.697L101.528 118.963C101.729 118.762 101.729 118.46 101.528 118.258C101.326 118.057 101.024 118.057 100.823 118.258L96.7947 122.287V115.136C96.7947 114.834 96.5933 114.633 96.2912 114.633C95.9891 114.633 95.7877 114.834 95.7877 115.136V122.236L91.7594 118.208C91.558 118.007 91.2559 118.007 91.0545 118.208C90.8531 118.409 90.8531 118.712 91.0545 118.913L95.7877 123.646V127.02C95.2338 126.969 94.6295 126.919 94.0253 126.768C92.9679 125.006 91.0545 123.848 88.8893 123.797C87.1773 121.985 86.2206 119.568 86.2206 117.05C86.2206 111.511 90.7524 106.979 96.2912 106.979ZM89.2921 135.026V133.566L91.7091 131.149C91.9105 130.947 91.9105 130.645 91.7091 130.444C91.5076 130.242 91.2055 130.242 91.0041 130.444L89.2921 132.156V128.933C89.2921 128.631 89.0907 128.43 88.7886 128.43C88.4865 128.43 88.2851 128.631 88.2851 128.933V132.156L86.573 130.444C86.3716 130.242 86.0695 130.242 85.8681 130.444C85.6667 130.645 85.6667 130.947 85.8681 131.149L88.3354 133.616V135.076C85.7674 134.825 83.7533 132.659 83.7533 129.991C83.7533 127.221 85.9688 124.955 88.7382 124.905H88.8389C91.6587 124.905 93.9246 127.221 93.9246 129.991C93.8742 132.609 91.8601 134.774 89.2921 135.026Z" fill="#F8F8F8"/>
<path fill-rule="evenodd" clip-rule="evenodd" d="M200.407 58.8887C198.421 58.8887 196.812 60.4984 196.812 62.4841V165.977C196.812 167.963 198.421 169.572 200.407 169.572H257.61C259.596 169.572 261.205 167.963 261.205 165.977V62.4841C261.205 60.4984 259.596 58.8887 257.61 58.8887H200.407ZM256.774 69.174H201.244V155.436H256.774V69.174Z" fill="#E4803A"/>
<rect x="197.349" y="59.426" width="63.3151" height="109.605" rx="3.05611" stroke="#F8F8F8" stroke-width="1.07863"/>
<rect x="201.782" y="69.7112" width="54.4514" height="85.1836" stroke="#F8F8F8" stroke-width="1.07863"/>
<path d="M233.264 161.286C233.264 163.562 231.371 165.429 229.007 165.429C226.644 165.429 224.75 163.562 224.75 161.286C224.75 159.01 226.644 157.143 229.007 157.143C231.371 157.143 233.264 159.01 233.264 161.286Z" stroke="#F8F8F8" stroke-width="1.07863"/>
<path d="M223.53 65.1406H223.73M226.957 65.1406H234.486" stroke="#F8F8F8" stroke-width="1.07863" stroke-linecap="round"/>
<path d="M246.733 53.5936L242.105 44.0057M256.114 53.5943L258.759 33.4277M265.201 57.5608L280.078 47.9729M268.837 69.7924L282.722 74.4208" stroke="#F8F8F8" stroke-width="1.07863" stroke-linecap="round"/>
<path d="M144.822 17.261C144.724 9.77332 151.842 7.6548 155.413 7.5315C158.057 4.52346 161.82 -0.146026 171.3 0.635092C179.674 1.32513 183.082 8.06538 183.739 11.3495C186.078 11.4726 190.635 13.2214 190.143 19.2313C189.65 25.2413 184.026 27.0721 181.275 27.2363H155.413C151.924 27.0311 144.921 24.7487 144.822 17.261Z" stroke="#F8F8F8" stroke-width="1.07863" stroke-linecap="round" stroke-linejoin="round"/>
</svg>
