<svg width="239" height="180" viewBox="0 0 239 180" fill="none" xmlns="http://www.w3.org/2000/svg">
<path d="M1.32034 26.6047C1.22213 19.1171 8.33997 16.9986 11.9112 16.8752C14.5555 13.8672 18.3183 9.19772 27.798 9.97884C36.1725 10.6689 39.5798 17.4091 40.2366 20.6932C42.5765 20.8164 47.1332 22.5652 46.6406 28.5751C46.148 34.585 40.5239 36.4159 37.7735 36.5801H11.9112C8.42181 36.3748 1.41856 34.0924 1.32034 26.6047Z" stroke="#F8F8F8" stroke-width="1.07863" stroke-linecap="round" stroke-linejoin="round"/>
<path d="M193.008 63.9216C192.91 56.434 200.027 54.3154 203.599 54.1921C206.243 51.1841 210.006 46.5146 219.486 47.2957C227.86 47.9858 231.267 54.726 231.924 58.0101C234.264 58.1333 238.821 59.8821 238.328 65.892C237.835 71.9019 232.211 73.7328 229.461 73.897H203.599C200.109 73.6917 193.106 71.4093 193.008 63.9216Z" stroke="#F8F8F8" stroke-width="1.07863" stroke-linecap="round" stroke-linejoin="round"/>
<path d="M154.211 145.506C158.349 139.769 160.787 132.725 160.787 125.111C160.787 105.835 145.161 90.2089 125.885 90.2089C106.609 90.2089 90.983 105.835 90.983 125.111C90.983 132.725 93.4211 139.769 97.5591 145.506M131.772 108.595L137.583 114.108L143.244 108.595M167.977 121.856L173.043 126.326L177.96 121.856M81.4115 157.317H171.106M97.5591 168.044H153.376M114.935 178.623H137.583M58.459 145.506H193.007M84.0187 21.8861L93.7789 29.038L108.84 29.4591C126.453 22.756 161.68 9.34968 161.68 9.34968C163.503 8.36796 167.25 5.63043 167.654 2.53408C164.877 1.35612 161.596 0.00970614 156.8 1.69251C152.963 3.03875 139.832 7.91861 133.745 10.1903L107.578 1.69251L102.361 3.62734L117.338 16.5849L101.099 23.3161L88.5623 20.0346L84.0187 21.8861Z" stroke="#F8F8F8" stroke-width="1.5" stroke-linecap="round" stroke-linejoin="round"/>
</svg>
